<svg xmlns="http://www.w3.org/2000/svg" width="80" height="80" viewBox="0 0 80 80"><g id="Layer_2" data-name="Layer 2"><g id="Layer_1-2" data-name="Layer 1"><rect width="80" height="80" rx="16" style="fill:#fff"/><path d="M67.9,43.7l-3.133-9.644L58.551,14.945a1.067,1.067,0,0,0-2.03,0l-6.21,19.113H29.69L23.479,14.945a1.067,1.067,0,0,0-2.03,0l-6.21,19.114L12.105,43.7a2.135,2.135,0,0,0,.775,2.387L40,65.792l27.12-19.7A2.137,2.137,0,0,0,67.9,43.7" style="fill:#fc6d26"/><path d="M40,65.792,50.311,34.059H29.69L40,65.792Z" style="fill:#e24329"/><path d="M40,65.792,29.69,34.059H15.239L40,65.792Z" style="fill:#fc6d26"/><path d="M15.239,34.059,12.105,43.7a2.131,2.131,0,0,0,.775,2.387L40,65.792,15.239,34.059Z" style="fill:#fca326"/><path d="M15.239,34.058H29.69L23.479,14.945a1.067,1.067,0,0,0-2.03,0l-6.21,19.114Z" style="fill:#e24329"/><path d="M40,65.792,50.311,34.059H64.762L40,65.792Z" style="fill:#fc6d26"/><path d="M64.761,34.059,67.9,43.7a2.131,2.131,0,0,1-.775,2.387L40,65.792,64.761,34.059Z" style="fill:#fca326"/><path d="M64.761,34.058H50.311l6.211-19.112a1.067,1.067,0,0,1,2.03,0l6.21,19.113Z" style="fill:#e24329"/></g></g></svg>