<svg xmlns="http://www.w3.org/2000/svg" width="80" height="80" viewBox="0 0 80 80"><g id="Layer_2" data-name="Layer 2"><g id="Layer_1-2" data-name="Layer 1"><rect width="80" height="80" rx="16" style="fill:#fff"/><path d="M12.3,31.528s-1.374-.994.277-2.32l3.844-3.448a1.629,1.629,0,0,1,2.264-.148l35.486,26.93V65.456s-.018,2.028-2.613,1.8Z" style="fill:#2489ca"/><path d="M21.449,39.852,12.3,48.187s-.94.7,0,1.954l4.247,3.871s1.009,1.087,2.5-.149l9.7-7.371Z" style="fill:#1070b3"/><path d="M37.506,39.921,54.28,27.081l-.108-12.844s-.716-2.8-3.106-1.343L28.744,33.257Z" style="fill:#0877b9"/><path d="M51.558,67.277a2.3,2.3,0,0,0,2.155.671l13.072-6.455a2.77,2.77,0,0,0,1.439-2.563V20.372a2.576,2.576,0,0,0-1.73-2.281L55.163,12.617a3.139,3.139,0,0,0-4.1.277s2.085-1.506,3.106,1.343V65.22a2.318,2.318,0,0,1-.223,1c-.3.605-.947,1.167-2.5.931Z" style="fill:#3c99d4"/></g></g></svg>