<svg xmlns="http://www.w3.org/2000/svg" width="80" height="80" viewBox="0 0 80 80"><g id="Layer_2" data-name="Layer 2"><g id="Layer_1-2" data-name="Layer 1"><rect width="80" height="80" rx="16" style="fill:#fff"/><path d="M32.655,47.586l.088.043.158.076c.2.095.4.19.608.281l.129.057c.235.1.471.2.71.3l.173.068c.221.086.445.169.67.248l.084.029c.247.086.5.166.748.245l.181.053a7.124,7.124,0,0,0,.771.219c16.74,3.052,21.6-10.06,21.6-10.06-4.084,5.32-11.333,6.724-18.2,5.162-.26-.059-.513-.141-.767-.216l-.191-.057q-.37-.114-.738-.24l-.1-.037c-.218-.077-.435-.158-.651-.241l-.182-.072q-.354-.139-.7-.292l-.141-.062c-.2-.09-.4-.182-.593-.276l-.171-.082c-.154-.075-.307-.156-.459-.234l-.306-.16c-.185-.1-.368-.2-.549-.308l-.185-.1c-.241-.142-.48-.289-.716-.439l-.193-.128q-.256-.165-.509-.338l-.164-.116q-.243-.171-.481-.348l-.214-.161c-.146-.111-.29-.224-.434-.339l-.193-.156c-.183-.149-.363-.3-.542-.455l-.059-.05c-.193-.169-.382-.341-.569-.516l-.161-.155q-.207-.2-.409-.4l-.16-.16q-.255-.261-.5-.531L29.31,37.6q-.259-.285-.509-.579l-.133-.158c-.124-.149-.247-.3-.366-.453l-.134-.167c-.144-.185-.285-.373-.423-.562-3.813-5.2-5.183-12.375-2.135-18.267l-2.7,3.427c-3.461,4.974-3.03,11.447-.386,16.733l.194.376.124.238.077.137.137.247q.123.217.252.432l.145.238c.095.154.192.306.293.458l.124.193c.138.2.279.411.424.612l.013.016.071.1c.126.173.256.344.387.514l.145.185q.175.221.357.439l.137.163c.162.192.328.382.5.568l.01.011.019.021c.165.18.334.356.505.533l.163.164c.132.133.267.265.4.4l.166.157c.182.171.365.339.553.5l.009.007.1.082c.166.143.334.286.5.425l.208.166q.207.166.419.328l.224.17c.156.115.313.227.471.338l.171.122.048.033c.15.1.3.2.457.3l.2.132c.235.148.474.3.716.437l.2.112c.177.1.355.2.536.3l.3.153Zm1.691-16.85a8.79,8.79,0,0,0,1.288,1.609c.18.2.369.392.561.583l.149.145c.187.182.377.36.573.533l.024.021,0,.006c.218.19.442.373.67.554l.153.119c.229.175.462.347.7.512l.021.015.319.21.152.1c.171.109.344.216.52.318l.073.043c.152.087.306.173.46.257l.163.085.321.166.049.022q.33.163.67.313l.148.061c.181.077.365.152.549.223l.235.086c.168.062.336.119.505.175l.229.073a5.575,5.575,0,0,0,.729.211c12.924,2.142,15.908-7.81,15.908-7.81-2.69,3.874-7.9,5.722-13.457,4.279-.246-.064-.49-.135-.732-.211l-.22-.071q-.258-.084-.512-.177l-.231-.086q-.278-.106-.551-.222l-.149-.063c-.227-.1-.452-.2-.674-.314l-.338-.172-.195-.1c-.144-.078-.287-.159-.428-.241l-.1-.059c-.175-.1-.347-.207-.518-.315l-.156-.1-.336-.222q-.355-.246-.7-.51l-.157-.124a15.581,15.581,0,0,1-5.279-7.523,11.672,11.672,0,0,1,.911-9.365l-2.045,2.888c-2.5,3.6-2.367,8.424-.415,12.234A16.067,16.067,0,0,0,34.346,30.736Zm13.622-4.457.321.112.142.045a4.09,4.09,0,0,0,.46.132c7.136,1.379,9.072-3.662,9.587-4.4-1.7,2.442-4.545,3.027-8.041,2.179-.286-.073-.569-.16-.846-.261a10.74,10.74,0,0,1-1.005-.417,10.394,10.394,0,0,1-1.761-1.075c-3.129-2.374-5.072-6.9-3.031-10.59l-1.1,1.522a7.531,7.531,0,0,0-.6,7.267A10.235,10.235,0,0,0,47.968,26.279ZM41.08,55.5H39.145a.255.255,0,0,0-.15.057.252.252,0,0,0-.087.134l-.687,3.178-.687,3.179a.256.256,0,0,1-.086.134.253.253,0,0,1-.15.057h-1.37c-1.355,0-1.2-.938-.921-2.222l.008-.039.031-.162.005-.03.062-.33.066-.353.071-.359.312-1.526.313-1.526a.155.155,0,0,0,0-.071.147.147,0,0,0-.031-.064.15.15,0,0,0-.056-.044.153.153,0,0,0-.07-.013H33.733a.254.254,0,0,0-.15.056.251.251,0,0,0-.086.135l-.427,2.026-.427,2.027v0l-.039.189c-.492,2.245-.362,4.387,2.312,4.454l.077,0h4.2a.254.254,0,0,0,.149-.056.258.258,0,0,0,.087-.135l.905-4.254.905-4.254A.154.154,0,0,0,41.08,55.5Zm-20.725-.022H18.23a.259.259,0,0,0-.15.056.254.254,0,0,0-.088.134l-.2.89-.2.889a.15.15,0,0,0,.152.191h2.142a.258.258,0,0,0,.237-.191l.2-.889.194-.889A.151.151,0,0,0,20.355,55.474Zm-.616,2.768H17.6a.256.256,0,0,0-.15.056.254.254,0,0,0-.088.134l-.3,1.333-.3,1.332-.083.382-.289,1.36L16.1,64.2c-.022.1-.069.274-.1.376,0,0-.4,1.19-1.073,1.176h-.084l-.582-.011h0a.259.259,0,0,0-.24.186l-.222.934-.221.933a.149.149,0,0,0,.149.193c.381,0,1.236.014,1.753.014,1.68,0,2.566-.931,3.134-3.61l.664-3.075.623-2.883A.151.151,0,0,0,19.739,58.242Zm39.436-.721-.089-.367L59,56.779l-.044-.19c-.174-.676-.685-1.066-1.794-1.066l-1.727,0-1.59,0H52.055a.255.255,0,0,0-.236.191l-.079.374-.093.441-.026.124-.806,3.773L50.05,64a.856.856,0,0,0-.017.287c.013.053.219.1.327.1h1.613a1.012,1.012,0,0,0,.3-.043c.058-.024.145-.235.166-.34l.287-1.419.287-1.42v0l.039-.189.348-1.63.307-1.44a.258.258,0,0,1,.087-.135.251.251,0,0,1,.149-.056l5.078,0A.148.148,0,0,0,59.175,57.521Zm6.537-3.316-.391,0H63.7a.409.409,0,0,0-.3.162L59.8,59.634c-.06.089-.129.076-.153-.028l-.265-1.16a.252.252,0,0,0-.088-.135.259.259,0,0,0-.151-.056h-2.31a.139.139,0,0,0-.142.187l1.035,3.628a.842.842,0,0,1,0,.377L57.276,64.2a.144.144,0,0,0,.147.189h2.284a.264.264,0,0,0,.152-.055.271.271,0,0,0,.091-.134l.452-1.755a1.151,1.151,0,0,1,.166-.346L66.4,54.357c.065-.086.03-.156-.077-.155ZM47.355,58.748v0a.231.231,0,0,1-.077.143.234.234,0,0,1-.151.059H44.2a.126.126,0,0,1-.137-.154l0-.007h0v-.01l.013-.049A1.836,1.836,0,0,1,46,57.5C47.2,57.5,47.437,58.085,47.355,58.748ZM46.5,55.366c-3.76,0-4.651,2.283-5.151,4.587-.5,2.348-.458,4.543,3.434,4.543h1.092c1.027,0,2.058-.012,2.475-.015a.253.253,0,0,0,.149-.058.251.251,0,0,0,.084-.134l.158-.77.031-.15.187-.919a.155.155,0,0,0,0-.071.159.159,0,0,0-.031-.064.162.162,0,0,0-.057-.043.153.153,0,0,0-.07-.013H45.3c-1.392,0-1.8-.37-1.652-1.457h5.595a.227.227,0,0,0,.123-.042.232.232,0,0,0,.081-.1l.013-.049h0C50.291,57.476,50.053,55.367,46.5,55.366Zm-17.773,3.37-.053.187h0l-.422,1.5-.422,1.5a.285.285,0,0,1-.095.134.276.276,0,0,1-.154.054H25.342c-1.7,0-2.108-1.326-1.7-3.281.413-2,1.222-3.244,2.891-3.37C28.818,55.281,29.274,56.885,28.723,58.736Zm1.533,3.254a25.041,25.041,0,0,0,1.293-4.037c.327-1.978-.664-4.847-4.489-4.847-3.8,0-5.456,2.739-6.086,5.717-.631,3,.2,5.629,3.977,5.608l2.984-.011,2.789-.01a.273.273,0,0,0,.152-.057.266.266,0,0,0,.092-.133l.486-1.853a.145.145,0,0,0-.146-.19l-.466,0-.466,0a.119.119,0,0,1-.132-.138Zm18.831-1.714a.116.116,0,0,1-.01.049.132.132,0,0,1-.027.042.119.119,0,0,1-.042.028.138.138,0,0,1-.049.01.134.134,0,0,1-.049-.01.132.132,0,0,1-.042-.027.147.147,0,0,1-.028-.042.138.138,0,0,1-.01-.049.13.13,0,0,1,.038-.091.126.126,0,0,1,.09-.037.125.125,0,0,1,.091.037A.129.129,0,0,1,49.087,60.276Z" style="fill:#0868ac"/></g></g></svg>