<svg xmlns="http://www.w3.org/2000/svg" xmlns:xlink="http://www.w3.org/1999/xlink" width="80" height="80" viewBox="0 0 80 80"><defs><clipPath id="clip-path" transform="translate(0 0)"><rect width="80" height="80" style="fill:none"/></clipPath></defs><g id="Layer_2" data-name="Layer 2"><g id="Layer_1-2" data-name="Layer 1"><g style="clip-path:url(#clip-path)"><rect width="80" height="80" rx="16" style="fill:#f7df1e"/><path d="M53.876,62.6c1.611,2.631,3.708,4.565,7.416,4.565,3.114,0,5.1-1.557,5.1-3.708,0-2.578-2.044-3.491-5.473-4.99l-1.879-.807c-5.425-2.311-9.029-5.206-9.029-11.327,0-5.638,4.3-9.93,11.01-9.93,4.779,0,8.216,1.663,10.692,6.019l-5.854,3.759c-1.289-2.311-2.679-3.222-4.838-3.222-2.2,0-3.6,1.4-3.6,3.222,0,2.255,1.4,3.168,4.623,4.565l1.879.8c6.387,2.739,9.993,5.531,9.993,11.81,0,6.768-5.316,10.476-12.457,10.476-6.981,0-11.492-3.327-13.7-7.688Zm-26.557.651c1.181,2.1,2.256,3.867,4.838,3.867,2.47,0,4.028-.967,4.028-4.724V36.829H43.7V62.493c0,7.784-4.564,11.327-11.226,11.327-6.019,0-9.5-3.115-11.277-6.867Z" transform="translate(0 0)"/></g></g></g></svg>