<svg xmlns="http://www.w3.org/2000/svg" width="80" height="80" viewBox="0 0 80 80"><g id="Layer_2" data-name="Layer 2"><g id="Layer_1-2" data-name="Layer 1"><rect width="80" height="80" rx="16" style="fill:#001e36"/><path d="M15.932,56.867v-34.3c0-.234.1-.367.333-.367.567,0,1.1,0,1.867-.033s1.633-.034,2.533-.067,1.867-.033,2.9-.067S25.6,22,26.6,22a19.6,19.6,0,0,1,6.866,1.033,11.906,11.906,0,0,1,4.467,2.734,10.6,10.6,0,0,1,2.433,3.8,12.756,12.756,0,0,1,.767,4.333,11.919,11.919,0,0,1-2,7.1,11.428,11.428,0,0,1-5.367,4.067,21.606,21.606,0,0,1-7.5,1.133c-.8,0-1.333,0-1.666-.033s-.8-.034-1.434-.034v10.7a.412.412,0,0,1-.01.164.412.412,0,0,1-.356.3H16.332C16.065,57.3,15.932,57.167,15.932,56.867ZM23.2,28.633v11.2c.466.034.9.067,1.3.067h1.766a12.443,12.443,0,0,0,3.834-.6,5.728,5.728,0,0,0,2.733-1.767A5.149,5.149,0,0,0,33.865,34.1a5.482,5.482,0,0,0-.766-2.967,4.84,4.84,0,0,0-2.334-1.9,9.768,9.768,0,0,0-3.933-.666c-.867,0-1.633,0-2.267.033A7.6,7.6,0,0,0,23.2,28.633Z" style="fill:#31a8ff"/><path d="M61.932,37.8a11.773,11.773,0,0,0-3.2-1.133A17.565,17.565,0,0,0,55,36.233a6.715,6.715,0,0,0-2,.234,1.71,1.71,0,0,0-1.034.666,1.772,1.772,0,0,0-.266.9,1.482,1.482,0,0,0,.333.867,3.762,3.762,0,0,0,1.133.9c.767.4,1.567.767,2.367,1.1a24.13,24.13,0,0,1,5.133,2.433A7.769,7.769,0,0,1,63.3,46.1a7.2,7.2,0,0,1,.766,3.433,7.756,7.756,0,0,1-1.3,4.434,8.352,8.352,0,0,1-3.733,2.966A15.27,15.27,0,0,1,53,58a23,23,0,0,1-4.534-.433,13.442,13.442,0,0,1-3.4-1.067.665.665,0,0,1-.366-.633v-5.8a.351.351,0,0,1,.031-.166.363.363,0,0,1,.1-.134.249.249,0,0,1,.156-.033.252.252,0,0,1,.144.066,14.267,14.267,0,0,0,4.133,1.633,15.455,15.455,0,0,0,3.934.5,6.363,6.363,0,0,0,2.766-.466,1.549,1.549,0,0,0,.9-1.4,1.766,1.766,0,0,0-.8-1.334A14.134,14.134,0,0,0,52.8,47.167a20.452,20.452,0,0,1-4.734-2.4,8.638,8.638,0,0,1-2.533-2.834,7.157,7.157,0,0,1-.767-3.4A7.839,7.839,0,0,1,45.9,34.5a8.215,8.215,0,0,1,3.5-3.067,12.924,12.924,0,0,1,5.9-1.166,28.587,28.587,0,0,1,4.133.3,11.729,11.729,0,0,1,2.867.766.588.588,0,0,1,.333.3,1.7,1.7,0,0,1,.067.4v5.434a.417.417,0,0,1-.044.186.408.408,0,0,1-.123.147A.883.883,0,0,1,61.932,37.8Z" style="fill:#31a8ff"/></g></g></svg>