<svg xmlns="http://www.w3.org/2000/svg" width="80" height="80" viewBox="0 0 80 80"><g id="Layer_2" data-name="Layer 2"><g id="Layer_1-2" data-name="Layer 1"><rect width="80" height="80" rx="16" style="fill:#fff"/><path d="M59.837,23.005,56.223,63.5,39.976,68l-16.2-4.5-3.611-40.5Z" style="fill:#e44d26"/><path d="M40,64.557l13.128-3.64,3.089-34.6H40Z" style="fill:#f16529"/><path d="M32.974,36.25H40V31.283H27.546l.119,1.333L28.885,46.3H40V41.336H33.428Zm1.119,12.536H29.107l.7,7.8,10.174,2.824L40,59.4V54.235l-.022.006-5.531-1.494Z" style="fill:#ebebeb"/><path d="M23.854,12h2.524v2.494h2.309V12h2.524v7.552H28.687V17.023H26.378v2.529H23.854V12Zm10.677,2.5H32.309V12h6.969v2.5H37.055v5.048H34.531V14.5ZM40.384,12h2.632l1.619,2.653L46.252,12h2.633v7.552H46.371V15.809l-1.736,2.685h-.043l-1.738-2.685v3.743h-2.47Zm9.757,0h2.525v5.056h3.55v2.5H50.141V12Z"/><path d="M39.983,46.3H46.1l-.577,6.441-5.539,1.495v5.168l10.182-2.822.075-.839L51.407,42.67l.121-1.334H39.983Zm0-10.065v.012h12l.1-1.116.226-2.518.119-1.333H39.983v4.955Z" style="fill:#fff"/></g></g></svg>