<svg xmlns="http://www.w3.org/2000/svg" width="80" height="80" viewBox="0 0 80 80"><g id="Layer_2" data-name="Layer 2"><g id="Layer_1-2" data-name="Layer 1"><rect width="80" height="80" rx="16" style="fill:#fff"/><path d="M40,12.692a28,28,0,0,0-8.852,54.569c1.4.259,1.913-.608,1.913-1.347,0-.668-.026-2.874-.038-5.213-7.79,1.694-9.434-3.3-9.434-3.3-1.273-3.236-3.109-4.1-3.109-4.1-2.54-1.738.192-1.7.192-1.7a5.885,5.885,0,0,1,4.292,2.885c2.5,4.28,6.55,3.043,8.148,2.328a5.962,5.962,0,0,1,1.778-3.745c-6.219-.707-12.758-3.108-12.758-13.837a10.839,10.839,0,0,1,2.886-7.516,10.053,10.053,0,0,1,.271-7.409s2.35-.753,7.7,2.87a26.528,26.528,0,0,1,14.024,0c5.344-3.623,7.692-2.87,7.692-2.87a10.051,10.051,0,0,1,.275,7.409,10.817,10.817,0,0,1,2.881,7.516c0,10.754-6.55,13.122-12.785,13.815a6.692,6.692,0,0,1,1.9,5.185c0,3.747-.033,6.762-.033,7.684,0,.745.5,1.618,1.924,1.344A28,28,0,0,0,40,12.692Z" style="fill:#181616;fill-rule:evenodd"/><path d="M22.605,52.893c-.062.139-.281.18-.48.085s-.318-.28-.252-.42.28-.183.482-.087.32.283.249.422Zm1.134,1.265c-.133.124-.394.066-.571-.13s-.218-.456-.082-.581.391-.065.575.13.218.456.078.581Zm1.1,1.612c-.171.12-.452.008-.626-.241s-.171-.548.005-.668.45-.011.626.235.171.552,0,.674Zm1.512,1.559c-.153.169-.48.123-.719-.107a.539.539,0,0,1-.159-.716c.156-.17.484-.122.725.107s.318.547.154.715Zm2.087.9c-.068.219-.383.319-.7.225s-.524-.352-.459-.574.381-.324.7-.224S28.508,58.01,28.442,58.233Zm2.292.168c.008.23-.261.421-.594.426s-.606-.179-.609-.407.263-.421.6-.428.605.179.605.408Zm2.132-.363c.04.225-.192.456-.522.518s-.626-.08-.668-.3.2-.462.52-.522.628.079.67.307Z" style="fill:#181616"/></g></g></svg>