<svg xmlns="http://www.w3.org/2000/svg" width="80" height="80" viewBox="0 0 80 80"><g id="Layer_2" data-name="Layer 2"><g id="Layer_1-2" data-name="Layer 1"><rect width="80" height="80" rx="16" style="fill:#fff"/><path d="M13.6,36.523a2.46,2.46,0,0,0,.144.722A8.867,8.867,0,0,0,15.666,40.7a22.822,22.822,0,0,0,4.261,3.739c1.333.958,2.693,1.9,4.031,2.845.23.164.447.351.7.552-.214.116-.393.218-.578.312a31.006,31.006,0,0,0-5.031,3.116,10.279,10.279,0,0,0-2.5,2.531,5.442,5.442,0,0,0-.631,5.245A3.1,3.1,0,0,0,16.969,60.4a1.571,1.571,0,0,0,.518.268c.472.111.953.183,1.43.271H20.27a8.409,8.409,0,0,0,4.089-1.495,8.975,8.975,0,0,0,3.776-5.391,9.516,9.516,0,0,0-.056-4.974q-.069-.23-.158-.453c-.058-.148-.126-.293-.207-.478l3.067-1.763.046.039c-.056.182-.115.364-.165.549a12.4,12.4,0,0,0-.52,4.066,7.808,7.808,0,0,0,1.365,4.079,1.979,1.979,0,0,0,3.1.034,7.168,7.168,0,0,0,.708-1.121c.5-1.033.963-2.083,1.441-3.127l.083-.191c-.034.494-.074.928-.092,1.363a5.185,5.185,0,0,0,.243,2,1.379,1.379,0,0,0,1.168,1.037,1.468,1.468,0,0,0,1.1-.4,4.646,4.646,0,0,0,1.2-1.427c.848-1.557,1.718-3.105,2.487-4.7.831-1.727,1.558-3.5,2.33-5.26l.128-.311c.182.717.31,1.419.544,2.083a19.805,19.805,0,0,0,.975,2.256.673.673,0,0,1-.087.86c-1.006,1.213-1.995,2.441-2.985,3.668a8.06,8.06,0,0,0-.619.842,1.632,1.632,0,0,0-.214.608.773.773,0,0,0,.617.879,4.256,4.256,0,0,0,1.207.086,7.066,7.066,0,0,0,3.745-1.408,3.924,3.924,0,0,0,1.55-4.237,9.817,9.817,0,0,0-.423-1.371.51.51,0,0,1,.055-.535,43.644,43.644,0,0,0,3.043-5.16,1.071,1.071,0,0,1,.136-.215,13.42,13.42,0,0,0,1.538,4.368c-.406.392-.809.747-1.174,1.139a7.852,7.852,0,0,0-1.861,2.941,3.472,3.472,0,0,0-.206,1.519,1.279,1.279,0,0,0,1.58,1.161,7.175,7.175,0,0,0,4.287-2.642,3.476,3.476,0,0,0,.491-3.173c-.084-.307-.184-.609-.291-.961.425-.131.838-.289,1.266-.387a11.22,11.22,0,0,1,6.557.384A4.946,4.946,0,0,1,67.985,48.2a2.866,2.866,0,0,1-1.093,3.889,2.447,2.447,0,0,0-.394.27.4.4,0,0,0-.077.14.391.391,0,0,0-.015.159c.01.055.155.124.238.123a2.179,2.179,0,0,0,1.209-.5,3.723,3.723,0,0,0,1.719-2.595l.028-.084-.034-.727c-.014-.041.01-.083.007-.115a5.706,5.706,0,0,0-2.325-3.875A8.48,8.48,0,0,0,62.23,43.2a11.332,11.332,0,0,0-4.355.67c-.4.145-.8.317-1.2.479-.054-.1-.112-.192-.16-.288a8.163,8.163,0,0,1-1.024-2.624,5.9,5.9,0,0,1-.011-2.057c.158-.656.363-1.3.556-1.946a.474.474,0,0,0-.288-.669,1.279,1.279,0,0,0-.351-.115,5.4,5.4,0,0,0-2.306.171.662.662,0,0,0-.522.524c-.033.17-.1.333-.151.5a12.393,12.393,0,0,1-.657,2.071c-.8,1.666-1.713,3.269-2.648,4.861-.1.172-.208.34-.336.548a7.183,7.183,0,0,1-.784-2.025,6.207,6.207,0,0,1-.011-2.444c.151-.6.348-1.2.53-1.8a.415.415,0,0,0-.21-.582,1.235,1.235,0,0,0-.423-.165,5.184,5.184,0,0,0-2.388.2.644.644,0,0,0-.443.485,18.929,18.929,0,0,1-.709,2.192c-1.237,2.836-2.51,5.658-3.782,8.48-.265.589-.576,1.158-.875,1.731a4.021,4.021,0,0,1-.281.41A.329.329,0,0,1,39.3,51.6a5.87,5.87,0,0,1,.028-1.087q.318-1.59.7-3.166c.209-.868.453-1.728.686-2.59a.813.813,0,0,0-.128-.8,1.2,1.2,0,0,0-1.508-.183l-.191.108.037-.308a4.8,4.8,0,0,0-.072-1.967,1.565,1.565,0,0,0-1.644-1.25,3.527,3.527,0,0,0-1.166.222A8.821,8.821,0,0,0,32.348,43.5a1.153,1.153,0,0,1-.338.292c-1.29.716-2.585,1.422-3.879,2.131l-1.44.789c-.386-.368-.737-.75-1.135-1.075-1.217-.992-2.453-1.959-3.677-2.94a14.465,14.465,0,0,1-2.942-2.926,5.232,5.232,0,0,1-1.022-2.852,6.7,6.7,0,0,1,1.023-3.73,14.322,14.322,0,0,1,3.395-3.714A31.542,31.542,0,0,1,26.8,26.518,33.7,33.7,0,0,1,33.642,23.5a18.913,18.913,0,0,1,7.566-.861,7.784,7.784,0,0,1,2.912.845,3.007,3.007,0,0,1,1.529,1.658,4.148,4.148,0,0,1,.072,2.321A8.864,8.864,0,0,1,43.4,31.5,15.667,15.667,0,0,1,37,35.551a17.594,17.594,0,0,1-4.356.929,8.176,8.176,0,0,1-3.561-.429,4.623,4.623,0,0,1-1.962-1.332c-.1-.111-.218-.232-.4-.128a.338.338,0,0,0-.146.437,4.251,4.251,0,0,0,.339.82,4.684,4.684,0,0,0,1.554,1.471,7.612,7.612,0,0,0,3.862,1.06,19.452,19.452,0,0,0,6.09-.776,14.944,14.944,0,0,0,7.308-4.409,11.226,11.226,0,0,0,3.087-6.431,6.225,6.225,0,0,0-.582-3.543,6.4,6.4,0,0,0-2.794-2.732,11.835,11.835,0,0,0-5.5-1.429H38.023a19.906,19.906,0,0,0-6.754,1.46,46.489,46.489,0,0,0-4.848,2.1,31.339,31.339,0,0,0-9.239,6.616,13.8,13.8,0,0,0-3.048,4.812q-.288.823-.5,1.671M26.056,51.779a7.09,7.09,0,0,1-2.524,4.907,5.73,5.73,0,0,1-2.886,1.44,2.115,2.115,0,0,1-1.2-.083,1.228,1.228,0,0,1-.691-1.256,4.547,4.547,0,0,1,.679-2.313,8.278,8.278,0,0,1,2.114-2.322,32.435,32.435,0,0,1,4.134-2.785l.108-.045A7.275,7.275,0,0,1,26.056,51.779Zm11.221-8.644a14.942,14.942,0,0,1-.422,1.886A55.464,55.464,0,0,1,34.5,51.254a10.76,10.76,0,0,1-.612,1.078.749.749,0,0,1-.126.149c-.258.254-.5.241-.633-.092a7.056,7.056,0,0,1-.325-1.212,6.417,6.417,0,0,1-.058-.846,10.617,10.617,0,0,1,1.666-5.522A5.177,5.177,0,0,1,36.016,43a2.852,2.852,0,0,1,.712-.315C37.107,42.58,37.34,42.755,37.277,43.135Zm7.655,9.754,2.752-3.213C47.8,50.869,45.77,53.251,44.932,52.889Zm8.788-2.162c-.194.111-.406.192-.6.3-.183.094-.243,0-.248-.158a1.063,1.063,0,0,1,.041-.322A6.919,6.919,0,0,1,54.981,47.2l.071-.036A2.947,2.947,0,0,1,53.72,50.727Z" style="fill:#cb6699;fill-rule:evenodd"/></g></g></svg>