<svg xmlns="http://www.w3.org/2000/svg" width="80" height="80" viewBox="0 0 80 80"><g id="Layer_2" data-name="Layer 2"><g id="Layer_1-2" data-name="Layer 1"><rect width="80" height="80" rx="16" style="fill:#fff"/><path d="M66.944,37.506,42.493,13.056a3.607,3.607,0,0,0-5.1,0l-5.077,5.078,6.44,6.44a4.283,4.283,0,0,1,5.424,5.461l6.207,6.207a4.284,4.284,0,1,1-2.571,2.419l-5.788-5.789V48.106a4.281,4.281,0,1,1-3.528-.125V32.606a4.293,4.293,0,0,1-2.329-5.628l-6.349-6.35L13.056,37.393a3.608,3.608,0,0,0,0,5.1l24.451,24.45a3.607,3.607,0,0,0,5.1,0L66.944,42.61a3.609,3.609,0,0,0,0-5.1" style="fill:#f05133"/></g></g></svg>