<svg xmlns="http://www.w3.org/2000/svg" width="80" height="80" viewBox="0 0 80 80"><g id="Layer_2" data-name="Layer 2"><g id="Layer_1-2" data-name="Layer 1"><rect width="80" height="80" rx="16" style="fill:#fff"/><path d="M44.977,39.464q-.012-.121-.03-.243c-.012-.081-.026-.162-.042-.242s-.034-.16-.054-.24-.042-.158-.066-.236-.049-.156-.077-.233-.057-.154-.088-.23-.064-.15-.1-.224-.072-.147-.111-.219-.079-.144-.121-.214-.085-.139-.131-.207-.092-.135-.141-.2-.1-.13-.151-.193-.106-.126-.161-.186-.111-.12-.169-.178-.117-.114-.178-.169-.122-.109-.186-.161-.127-.1-.193-.151-.133-.1-.2-.141-.137-.089-.207-.131-.141-.083-.214-.121-.145-.076-.219-.111-.149-.068-.224-.1-.152-.061-.229-.089-.155-.053-.233-.077-.157-.045-.237-.065-.159-.038-.239-.054-.161-.03-.242-.042-.162-.022-.244-.03-.163-.014-.244-.018-.164-.006-.246-.006-.163,0-.245.006-.163.01-.245.018-.163.018-.244.03-.161.026-.241.042-.16.034-.24.054-.158.042-.236.065-.156.05-.233.077-.154.057-.229.089-.151.064-.225.1-.147.072-.219.111-.143.078-.214.121-.139.085-.207.131-.135.093-.2.141-.131.1-.194.151-.125.106-.186.161-.12.111-.178.169-.114.117-.169.178-.108.122-.16.186-.1.127-.151.193-.1.133-.142.2-.089.137-.131.207-.082.142-.121.214-.075.145-.11.219-.068.149-.1.224-.06.153-.088.23-.053.154-.077.233-.046.157-.065.236-.038.159-.054.24-.03.161-.042.242-.022.162-.03.243-.014.163-.018.245-.006.164-.006.246,0,.163.006.245.01.163.018.245.018.163.03.243.026.162.042.242.034.16.054.24.041.158.065.237.049.155.077.233.057.153.088.229.065.15.1.224.072.147.11.219.079.144.121.214.086.139.131.207.093.135.142.2.1.13.151.193.105.126.16.186.112.12.169.178.118.115.178.17.123.108.186.16.128.1.194.151.132.1.2.141.137.089.207.132.142.082.214.121.145.075.219.11.149.068.225.1.151.061.229.089.154.053.233.077.157.045.236.065.16.038.24.054.161.03.241.042.163.022.244.03.163.014.245.018.163.006.245.006.164,0,.246-.006.163-.01.244-.018.163-.018.244-.03.161-.026.242-.042.16-.034.239-.054.159-.041.237-.065.156-.05.233-.077.153-.057.229-.089.15-.064.224-.1.147-.072.219-.11.144-.079.214-.121.139-.086.207-.132.135-.092.2-.141.13-.1.193-.151.126-.1.186-.16.12-.112.178-.17.114-.117.169-.178.109-.122.161-.186.1-.127.151-.193.1-.133.141-.2.089-.137.131-.207.083-.142.121-.214.076-.145.111-.219.068-.149.1-.224.061-.152.088-.229.054-.155.077-.233.046-.158.066-.237.038-.159.054-.24.03-.161.042-.242.022-.162.03-.243.014-.163.018-.245.006-.164.006-.245,0-.164-.006-.246S44.985,39.546,44.977,39.464Z" style="fill:#00d8ff"/><path d="M58.043,31.237c-.582-.2-1.185-.39-1.8-.569.1-.416.2-.828.281-1.23,1.389-6.745.4-12-2.574-13.72-2.869-1.653-7.551-.057-12.524,4.272q-.7.608-1.4,1.282c-.309-.3-.619-.586-.926-.859-5.149-4.574-10.2-6.344-13.17-4.622-2.865,1.66-3.82,6.515-2.554,12.987.118.607.258,1.226.415,1.855-.716.2-1.41.421-2.075.653C15.632,33.407,12,36.648,12,39.954c0,3.432,3.924,6.905,10.24,9.064.486.166.994.322,1.514.472q-.252,1.02-.439,2c-1.2,6.332-.21,11.1,2.654,12.748a5.318,5.318,0,0,0,2.692.663c2.87,0,6.556-1.757,10.274-5.007.388-.339.777-.7,1.167-1.078q.758.729,1.515,1.381c3.583,3.084,7.026,4.724,9.736,4.724a5.19,5.19,0,0,0,2.632-.658c2.97-1.719,4.009-6.856,2.712-13.4-.1-.488-.211-.989-.337-1.5.355-.1.7-.212,1.043-.324C63.94,46.873,68,43.392,68,39.954,68,36.642,64.278,33.384,58.043,31.237ZM52.749,17.791c1.6.925,2.735,4.813,1.427,11.164-.075.365-.162.738-.254,1.114a57.465,57.465,0,0,0-7.488-1.182A56.584,56.584,0,0,0,41.7,22.979c.43-.414.86-.811,1.289-1.185C47.564,17.814,51.255,16.929,52.749,17.791Zm-4.935,26.72q-1.32,2.29-2.682,4.333c-1.664.119-3.38.183-5.132.183s-3.441-.054-5.061-.158c-.958-1.4-1.88-2.851-2.746-4.346h0c-.866-1.5-1.662-3.005-2.386-4.509.7-1.469,1.473-2.938,2.3-4.381l.079-.138c.863-1.5,1.773-2.94,2.713-4.318,1.675-.128,3.385-.2,5.1-.2,1.732,0,3.44.067,5.107.194.927,1.367,1.832,2.807,2.7,4.307q1.324,2.289,2.414,4.49C49.493,41.473,48.69,42.993,47.814,44.511Zm3.7-1.779a50.166,50.166,0,0,1,1.881,4.932,51.163,51.163,0,0,1-5.226.892q.868-1.378,1.72-2.85Q50.744,44.22,51.512,42.732ZM40.1,55.385c-1.134-1.225-2.265-2.578-3.368-4.03q1.6.062,3.27.064,1.716,0,3.386-.077A50.284,50.284,0,0,1,40.1,55.385ZM31.885,48.6a50.22,50.22,0,0,1-5.16-.83c.5-1.6,1.1-3.259,1.815-4.944.5.967,1.027,1.934,1.583,2.893h0C30.692,46.706,31.282,47.666,31.885,48.6ZM28.533,37.2c-.7-1.647-1.289-3.27-1.777-4.843,1.6-.357,3.3-.65,5.073-.872-.559.874-1.107,1.766-1.636,2.679l-.081.138Q29.281,35.744,28.533,37.2ZM40.027,24.688a51.532,51.532,0,0,1,3.3,3.981q-1.646-.078-3.323-.08h0c-1.11,0-2.211.028-3.3.078C37.787,27.234,38.9,25.9,40.027,24.688Zm9.851,9.6q-.832-1.437-1.707-2.8c1.784.225,3.5.525,5.108.894A51.344,51.344,0,0,1,51.487,37.2Q50.726,35.757,49.878,34.284ZM25.723,28.319c-1.164-5.951-.088-9.593,1.405-10.457,1.6-.929,5.534.034,10.382,4.339.279.248.559.51.84.778a57.508,57.508,0,0,0-4.768,5.9,57.968,57.968,0,0,0-7.474,1.163C25.963,29.459,25.833,28.882,25.723,28.319ZM23.014,46.754c-5.924-2.025-8.621-4.944-8.621-6.8,0-1.782,2.507-4.455,8.11-6.409.614-.214,1.26-.416,1.93-.606a57.29,57.29,0,0,0,2.727,7.068A57.736,57.736,0,0,0,24.4,47.185C23.921,47.048,23.457,46.906,23.014,46.754Zm4.15,15.412c-1.543-.89-2.605-4.4-1.5-10.229q.171-.9.409-1.858a55.743,55.743,0,0,0,7.545,1.093,57.6,57.6,0,0,0,4.806,5.937c-.357.344-.712.675-1.066.984C32.647,62.214,28.772,63.093,27.164,62.166ZM54.35,51.324c1.216,6.142.042,9.94-1.564,10.87-1.542.893-5.111.062-9.608-3.809q-.7-.6-1.407-1.285a55.7,55.7,0,0,0,4.7-5.964,56.209,56.209,0,0,0,7.577-1.168C54.158,50.428,54.263,50.882,54.35,51.324Zm2.3-4.557c-.306.1-.62.2-.94.294a55.673,55.673,0,0,0-2.837-7.1A56.556,56.556,0,0,0,55.6,32.974c.572.165,1.13.34,1.668.525,5.732,1.974,8.342,4.73,8.342,6.455C65.607,41.806,62.805,44.728,56.651,46.767Z" style="fill:#00d8ff"/></g></g></svg>