<svg xmlns="http://www.w3.org/2000/svg" width="80" height="80" viewBox="0 0 80 80"><g id="Layer_2" data-name="Layer 2"><g id="Layer_1-2" data-name="Layer 1"><rect width="80" height="80" rx="16" style="fill:#fff"/><path d="M30.667,68A9.318,9.318,0,0,0,40,58.667V49.333H30.667a9.334,9.334,0,1,0,0,18.667Z" style="fill:#0acf83"/><path d="M21.333,40a9.319,9.319,0,0,1,9.334-9.333H40V49.333H30.667A9.319,9.319,0,0,1,21.333,40Z" style="fill:#a259ff"/><path d="M21.333,21.333A9.319,9.319,0,0,1,30.667,12H40V30.667H30.667A9.32,9.32,0,0,1,21.333,21.333Z" style="fill:#f24e1e"/><path d="M40,12h9.333a9.334,9.334,0,1,1,0,18.667H40Z" style="fill:#ff7262"/><path d="M58.667,40a9.334,9.334,0,1,1-9.334-9.333A9.319,9.319,0,0,1,58.667,40Z" style="fill:#1abcfe"/></g></g></svg>