<svg xmlns="http://www.w3.org/2000/svg" width="80" height="80" viewBox="0 0 80 80"><g id="Layer_2" data-name="Layer 2"><g id="Layer_1-2" data-name="Layer 1"><rect width="80" height="80" rx="16" style="fill:#fff"/><path d="M39.976,68l-16.2-4.5-3.611-40.5H59.837L56.223,63.5Z" style="fill:#264de4"/><path d="M53.128,60.918l3.089-34.6H40V64.557Z" style="fill:#2965f1"/><path d="M28.44,41.336l.445,4.967H40V41.336Zm-.894-10.053L28,36.25H40V31.283ZM40,54.235l-.022.006-5.531-1.493-.354-3.962H29.107l.7,7.8,10.174,2.824L40,59.4Z" style="fill:#ebebeb"/><path d="M29.5,12h6.015v2.516h-3.5v2.515h3.5v2.516H29.5Zm7.219,0h6.015v2.188h-3.5v.437h3.5v5.031H36.719v-2.3h3.5v-.437h-3.5V12Zm7.219,0h6.015v2.188h-3.5v.437h3.5v5.031H43.938v-2.3h3.5v-.437h-3.5V12Z"/><path d="M51.528,41.336l.9-10.053H39.983V36.25h7l-.451,5.086H39.983V46.3H46.1l-.577,6.441-5.539,1.5v5.167l10.182-2.822.074-.839L51.407,42.67Z" style="fill:#fff"/></g></g></svg>