<svg xmlns="http://www.w3.org/2000/svg" width="80" height="80" viewBox="0 0 80 80"><g id="Layer_2" data-name="Layer 2"><g id="Layer_1-2" data-name="Layer 1"><rect width="80" height="80" rx="16" style="fill:#300"/><path d="M39.3,49.783H26.9l-2.533,7.833a.584.584,0,0,1-.633.467H17.467c-.367,0-.467-.2-.367-.6l10.734-30.9c.1-.334.2-.7.333-1.1a11.673,11.673,0,0,0,.2-2.167.332.332,0,0,1,.267-.367h8.633c.267,0,.4.1.433.267L49.867,57.549c.1.367,0,.534-.333.534H42.567A.5.5,0,0,1,42.234,58a.5.5,0,0,1-.2-.28ZM28.834,43.016H37.3c-.2-.7-.466-1.533-.766-2.4s-.6-1.867-.9-2.867-.634-2.033-.967-3.066-.633-2-.9-2.967-.5-1.8-.733-2.6h-.067a41.14,41.14,0,0,1-1.133,4.3c-.5,1.6-1,3.267-1.534,4.933C29.834,40.049,29.334,41.616,28.834,43.016Z" style="fill:#ff9a00"/><path d="M57.134,28.649a4.126,4.126,0,0,1-2.967-1.166,4.333,4.333,0,0,1-1.133-3.067,3.918,3.918,0,0,1,1.2-2.967A4.268,4.268,0,0,1,57.2,20.283a4,4,0,0,1,3.034,1.166,4.215,4.215,0,0,1,1.1,2.967,4.22,4.22,0,0,1-1.167,3.067,3.921,3.921,0,0,1-3.033,1.166ZM53.4,57.583V31.916c0-.333.134-.467.434-.467h6.6c.3,0,.433.167.433.467V57.583c0,.366-.133.533-.433.533H53.9a.454.454,0,0,1-.206-.03.468.468,0,0,1-.172-.116.455.455,0,0,1-.1-.18A.469.469,0,0,1,53.4,57.583Z" style="fill:#ff9a00"/></g></g></svg>